<svg xmlns="http://www.w3.org/2000/svg" xmlns:xlink="http://www.w3.org/1999/xlink" class="railroad-diagram" height="112" viewBox="0 0 653.0 112" width="653.0" color="black">
      <style type="text/css">svg.railroad-diagram{background-color:hsl(30, 20%, 95%)}
svg.railroad-diagram path{stroke-width:3px;stroke:black;fill:transparent}
svg.railroad-diagram text{font:bold 14px monospace;fill:black;text-anchor:middle}
svg.railroad-diagram text.label{text-anchor:start}
svg.railroad-diagram text.comment{font:italic 12px monospace}
svg.railroad-diagram rect{stroke-width:3px;stroke:black;fill:hsl(120,100%,90%)}</style><g transform="translate(.5 .5)">
       <g>
        <path d="M20 21v20m10 -20v20m-10 -10h20"/>
       </g>
       <path d="M40 31h10"/>
       <g class="non-terminal ">
        <path d="M50 31h0.0"/>
        <path d="M172.0 31h0.0"/>
        <rect height="22" width="122" x="50" y="20"/>
        <text x="111" y="35">&lt;color-stop&gt;</text>
       </g>
       <path d="M172.0 31h10"/>
       <path d="M182.0 31h10"/>
       <g class="terminal ">
        <path d="M192.0 31h0.0"/>
        <path d="M220.5 31h0.0"/>
        <rect height="22" rx="10" ry="10" width="28.5" x="192" y="20"/>
        <text x="206.25" y="35">,</text>
       </g>
       <path d="M220.5 31h10"/>
       <path d="M230.5 31h10"/>
       <g>
        <path d="M240.5 31h0.0"/>
        <path d="M603.0 31h0.0"/>
        <path d="M240.5 31h10"/>
        <g>
         <path d="M250.5 31h0.0"/>
         <path d="M593.0 31h0.0"/>
         <g>
          <path d="M250.5 31h0.0"/>
          <path d="M461.0 31h0.0"/>
          <path d="M250.5 31h20"/>
          <g>
           <path d="M270.5 31h170.5"/>
          </g>
          <path d="M441.0 31h20"/>
          <path d="M250.5 31a10 10 0 0 1 10 10v0a10 10 0 0 0 10 10"/>
          <g>
           <path d="M270.5 51h0.0"/>
           <path d="M441.0 51h0.0"/>
           <g class="non-terminal ">
            <path d="M270.5 51h0.0"/>
            <path d="M392.5 51h0.0"/>
            <rect height="22" width="122" x="270.5" y="40"/>
            <text x="331.5" y="55">&lt;color-hint&gt;</text>
           </g>
           <path d="M392.5 51h10"/>
           <path d="M402.5 51h10"/>
           <g class="terminal ">
            <path d="M412.5 51h0.0"/>
            <path d="M441.0 51h0.0"/>
            <rect height="22" rx="10" ry="10" width="28.5" x="412.5" y="40"/>
            <text x="426.75" y="55">,</text>
           </g>
          </g>
          <path d="M441.0 51a10 10 0 0 0 10 -10v0a10 10 0 0 1 10 -10"/>
         </g>
         <path d="M461.0 31h10"/>
         <g class="non-terminal ">
          <path d="M471.0 31h0.0"/>
          <path d="M593.0 31h0.0"/>
          <rect height="22" width="122" x="471" y="20"/>
          <text x="532" y="35">&lt;color-stop&gt;</text>
         </g>
        </g>
        <path d="M593.0 31h10"/>
        <path d="M250.5 31a10 10 0 0 0 -10 10v30a10 10 0 0 0 10 10"/>
        <g class="terminal ">
         <path d="M250.5 81h157.0"/>
         <path d="M436.0 81h157.0"/>
         <rect height="22" rx="10" ry="10" width="28.5" x="407.5" y="70"/>
         <text x="421.75" y="85">,</text>
        </g>
        <path d="M593.0 81a10 10 0 0 0 10 -10v-30a10 10 0 0 0 -10 -10"/>
       </g>
       <path d="M603.0 31h10"/>
       <path d="M 613.0 31 h 20 m -10 -10 v 20 m 10 -20 v 20"/>
      </g>
     </svg>