<!-- Generated railroad diagram derived from CSS Syntax Module Level 3; exact source: https://raw.githubusercontent.com/w3c/csswg-drafts/f971255463f01fb740e2a3a7ecfe83e319cddab9/css-syntax-3/Overview.bs; source SHA-256: b3b69f509779b1af89d8f299e2b250f27f17896c2dd3d486665117073e6a32cf. Generated using Bikeshed 7.1.3; exported as passive standalone SVG for Surgeist on 2026-10-03. Source licensed by CSSWG contributors under W3C Software and Document License, https://www.w3.org/copyright/software-license-2023/. No copyright year is supplied by the repository declaration. -->
<svg xmlns="http://www.w3.org/2000/svg" xmlns:xlink="http://www.w3.org/1999/xlink" class="railroad-diagram" height="109" viewBox="0 0 910.0 109" width="910.0" color="black">
      <style type="text/css">svg.railroad-diagram{background-color:rgb(96%,95%,94%)}
svg.railroad-diagram path{stroke-width:3px;stroke:black;fill:transparent}
svg.railroad-diagram text{font:bold 14px monospace;fill:black;text-anchor:middle}
svg.railroad-diagram text.label{text-anchor:start}
svg.railroad-diagram text.comment{font:italic 12px monospace}
svg.railroad-diagram rect{stroke-width:3px;stroke:black;fill:rgb(80%,100%,80%)}</style><g transform="translate(.5 .5)">
       <g>
        <path d="M20 30v20m10 -20v20m-10 -10h20"/>
       </g>
       <path d="M40 40h10"/>
       <g class="non-terminal">
        <path d="M50 40h0.0"/>
        <path d="M231.5 40h0.0"/>
        <rect height="22" width="181.5" x="50" y="29"/>
        <text x="140.75" y="44">&lt;ident-token "url"&gt;</text>
       </g>
       <path d="M231.5 40h10"/>
       <path d="M241.5 40h10"/>
       <g class="terminal">
        <path d="M251.5 40h0.0"/>
        <path d="M280.0 40h0.0"/>
        <rect height="22" rx="10" ry="10" width="28.5" x="251.5" y="29"/>
        <text x="265.75" y="44">(</text>
       </g>
       <path d="M280.0 40h10"/>
       <path d="M290.0 40h10"/>
       <g class="non-terminal">
        <path d="M300.0 40h0.0"/>
        <path d="M345.5 40h0.0"/>
        <rect height="22" width="45.5" x="300" y="29"/>
        <text x="322.75" y="44">ws*</text>
       </g>
       <path d="M345.5 40h10"/>
       <g>
        <path d="M355.5 40h0.0"/>
        <path d="M756.0 40h0.0"/>
        <path d="M355.5 40a10 10 0 0 0 10 -10v0a10 10 0 0 1 10 -10"/>
        <g>
         <path d="M375.5 20h360.5"/>
        </g>
        <path d="M736.0 20a10 10 0 0 1 10 10v0a10 10 0 0 0 10 10"/>
        <path d="M355.5 40h20"/>
        <g>
         <path d="M375.5 40h0.0"/>
         <path d="M736.0 40h0.0"/>
         <path d="M375.5 40h10"/>
         <g>
          <path d="M385.5 40h0.0"/>
          <path d="M726.0 40h0.0"/>
          <path d="M385.5 40h20"/>
          <g class="non-terminal">
           <path d="M405.5 40h0.0"/>
           <path d="M706.0 40h0.0"/>
           <rect height="22" width="300.5" x="405.5" y="29"/>
           <text x="555.75" y="44">not " ' ( ) \ ws or non-printable</text>
          </g>
          <path d="M706.0 40h20"/>
          <path d="M385.5 40a10 10 0 0 1 10 10v10a10 10 0 0 0 10 10"/>
          <g class="non-terminal">
           <path d="M405.5 70h114.75"/>
           <path d="M591.25 70h114.75"/>
           <rect height="22" width="71" x="520.25" y="59"/>
           <text x="555.75" y="74">escape</text>
          </g>
          <path d="M706.0 70a10 10 0 0 0 10 -10v-10a10 10 0 0 1 10 -10"/>
         </g>
         <path d="M726.0 40h10"/>
         <path d="M385.5 40a10 10 0 0 0 -10 10v29a10 10 0 0 0 10 10"/>
         <g>
          <path d="M385.5 89h340.5"/>
         </g>
         <path d="M726.0 89a10 10 0 0 0 10 -10v-29a10 10 0 0 0 -10 -10"/>
        </g>
        <path d="M736.0 40h20"/>
       </g>
       <path d="M756.0 40h10"/>
       <g class="non-terminal">
        <path d="M766.0 40h0.0"/>
        <path d="M811.5 40h0.0"/>
        <rect height="22" width="45.5" x="766" y="29"/>
        <text x="788.75" y="44">ws*</text>
       </g>
       <path d="M811.5 40h10"/>
       <path d="M821.5 40h10"/>
       <g class="terminal">
        <path d="M831.5 40h0.0"/>
        <path d="M860.0 40h0.0"/>
        <rect height="22" rx="10" ry="10" width="28.5" x="831.5" y="29"/>
        <text x="845.75" y="44">)</text>
       </g>
       <path d="M860.0 40h10"/>
       <path d="M 870.0 40 h 20 m -10 -10 v 20 m 10 -20 v 20"/>
      </g>
     </svg>